<svg width="24" height="20" viewBox="0 0 24 20" fill="none" xmlns="http://www.w3.org/2000/svg">
<g opacity="0.8">
<path d="M13.18 4.3H1.5C0.67 4.3 0 3.63 0 2.8V1.5C0 0.67 0.67 0 1.5 0H13.18C14.01 0 14.68 0.67 14.68 1.5V2.8C14.68 3.63 14.01 4.3 13.18 4.3Z" fill="#D6E0ED"/>
<path d="M22.22 6.19995H1.5C0.67 6.19995 0 6.86995 0 7.69995V18.04C0 18.87 0.67 19.54 1.5 19.54H22.22C23.05 19.54 23.72 18.87 23.72 18.04V7.69995C23.72 6.86995 23.05 6.19995 22.22 6.19995ZM18.08 15.69C16.53 15.69 15.27 14.43 15.27 12.87C15.27 11.31 16.53 10.05 18.08 10.05C19.64 10.05 20.9 11.31 20.9 12.87C20.9 14.43 19.64 15.69 18.08 15.69Z" fill="#D6E0ED"/>
</g>
</svg>
